<?xml version="1.0" standalone="no"?>
<!DOCTYPE svg PUBLIC "-//W3C//DTD SVG 20010904//EN"
 "http://www.w3.org/TR/2001/REC-SVG-20010904/DTD/svg10.dtd">
<svg version="1.0" xmlns="http://www.w3.org/2000/svg"
 width="22.000000pt" height="19.000000pt" viewBox="0 0 22.000000 19.000000"
 preserveAspectRatio="xMidYMid meet">

<g transform="translate(0.000000,19.000000) scale(0.100000,-0.100000)"
fill="#000000" stroke="none">
<path d="M23 175 c-38 -27 -29 -60 32 -123 l55 -57 55 57 c60 61 69 92 35 123
-14 12 -27 16 -47 11 -34 -9 -51 -9 -83 -1 -16 4 -33 0 -47 -10z m69 -22 c17
-15 19 -15 37 1 30 27 65 17 69 -20 3 -25 -5 -38 -44 -74 l-47 -43 -44 46
c-40 42 -54 82 -36 100 12 12 46 7 65 -10z"/>
</g>
</svg>
